<?xml version="1.0" encoding="utf-8"?>
<!-- Generator: Adobe Illustrator 22.0.0, SVG Export Plug-In . SVG Version: 6.00 Build 0)  -->
<svg version="1.1" id="Layer_1" xmlns="http://www.w3.org/2000/svg" xmlns:xlink="http://www.w3.org/1999/xlink" x="0px" y="0px"
	 viewBox="0 0 575.2 125.1" style="enable-background:new 0 0 575.2 125.1;" xml:space="preserve">
<g>
	<path d="M98.1,29.5l0.6,0.2c0.6-0.2,1.1-0.2,1.4-0.2h0.2c2.9,0.9,4.9,2.2,6,3.9c0.7,2.2,1.1,3.3,1.1,3.4v0.7
		c-0.2,1.4-0.4,2.2-0.6,2.4l0.3,0.8c0,0.8-0.6,2.9-1.8,6.4c-0.6,1.4-1.2,2.5-1.7,3.1c-1.4,2.8-2.9,5.5-4.6,8l-2.7,4.1
		c-0.1,0.5-0.8,1.4-2,2.6c0,0.3-0.3,0.8-0.9,1.6c0,0.7,1.4,2.6,4.1,5.9c0.3-0.7,2.9-2,7.9-4h0.6c0.5-0.7,1.8-1.4,3.8-2.1l5.5-3.6
		c1.1-0.8,1.9-1.3,2.3-1.3c0.2,0.1,0.2,0.1,0,0.1c0-0.6,1-1.1,3-1.5c0.3-0.3,0.9-0.6,1.8-0.8c0-0.3,0.6-0.4,1.8-0.4
		c-1.4,1.8-3.1,3.4-5.2,4.6c-1.3,0.7-3.2,2-5.7,3.8c-1.7,0.9-2.8,1.6-3.3,2.1c-0.3,0-3.2,1.6-8.8,4.8c-0.2,0-0.7,0.4-1.7,1.1
		c-0.4,0-0.5,0-0.5,0c1.1,2.3,2,4.2,2.4,5.8c1.3,2.7,2,4.7,2,6.2c0.1,0.1,0.4,1,0.8,2.8l-0.1,0.3v1.8c0,2.1-1.2,4.7-3.5,7.7
		c-2.2,1.5-4.2,2.2-6,2.2H93c-0.8,0-2.3-0.4-4.5-1.1h-0.1c0.2,0,0.2,0.1,0.2,0.3c-1.5-0.5-2.6-1.1-3.5-1.9c-1.3,0-2.6-1.3-4.1-4
		c-0.3-0.4-0.5-1.1-0.5-2.1v-0.3c0-0.8,0.1-1.4,0.3-1.6l0-0.1c0-1,0.4-2.1,1.1-3.1c0-1.1,1.1-2.9,3.2-5.4c2.3-3.4,4.2-5,5.7-5
		c2.3-1.7,3.5-2.8,3.5-3.4l-1.8-3.1c-0.3,0-0.9-0.7-1.9-2h0.2c-1.4,1.7-2.1,2.7-2.1,2.9c-0.6,0-1,0.4-1.4,1.1
		c-0.3,0-0.7,0.5-1.3,1.5c-0.2,0-0.9,0.9-2.1,2.6c-1,1-2.5,2.3-4.6,4c0,0.3-0.3,0.6-1,1c-0.2,0.4-0.8,0.9-1.9,1.4
		c-1.6,1.8-3.4,3.3-5.6,4.6c-0.3,0.6-1.3,1.3-3,2.1c-0.6,0.7-1.8,1.6-3.9,2.8c-2.1,1.5-3.6,2.4-4.5,2.7c-3.9,2.3-8,4.1-12.4,5.3
		c-2.1,0.7-3.9,1.1-5.5,1.1h-0.4c-0.5,0-1,0-1.8-0.1c0.2,0,0.3,0,0.3,0.1c-2.8,0-5.5-1.2-8.2-3.7c-0.8-1.3-1.4-2-1.8-2v-1.1l0,0
		c-0.5-0.5-0.7-1.5-0.7-2.9c0-0.1,0-0.4,0.1-0.9L29.2,91c0.2-1.4,0.9-3.5,2.2-6.4c0.7-0.7,1.4-1.8,2-3.5c3.8-4.6,6.1-6.9,7-6.9
		c1.7-2,3.5-3.3,5.2-4.1c3.3-1.8,5.8-2.7,7.4-2.7c4,0.3,6.1,1.1,6.3,2.5c-0.3,1.5-0.9,2.2-1.7,2.2c-0.4-1-1.4-1.5-2.8-1.5h-1.1
		l-2,0.2c0-0.3,0.1-0.4,0.2-0.4c-2.3,1-4.3,2-5.9,2.9c-4.3,3.4-7.6,6.7-10.1,10.1c0,0.5-0.7,1.9-2.1,4.2c-0.7,1.5-1,2.7-1,3.5
		c0,3.7,1.3,6,3.8,6.9c0.7,0.4,1.9,0.7,3.6,0.9c2.8,0,5.9-0.7,9.4-2c1.3-0.4,3.3-1.2,5.9-2.5c0.3-0.1,1.2-0.6,2.6-1.6
		c1.6-0.6,2.7-1.3,3.3-2l5.4-3.4c0-0.2,1.2-1.2,3.6-3c0.2,0,1.2-0.8,3-2.3l3.5-3.3c0.9,0,3.8-2.8,8.7-8.3c0.1,0,1.2-1.2,3.1-3.5
		c0.3,0,0.4,0,0.4-0.1c0-0.2-0.5-1-1.4-2.5c0-0.2-0.5-0.9-1.5-2.2c-1.2-2.2-2.4-4.5-3.6-7v-0.3l0.1-0.2c-0.5-0.3-0.8-1.2-1.1-2.8
		c-0.2-0.7-0.4-1-0.7-1l0.4-0.8c0-0.6-0.2-0.9-0.4-0.9l0.4-2.8l-0.1-0.3c0.1-0.9,0.2-1.6,0.4-1.9l-0.1-0.8c0-0.5,0-0.8,0-0.7
		c0.2,0,0.3-0.2,0.3-0.7v-0.3c0.3-0.2,0.8-1.2,1.6-3.2c0.9-1.6,1.7-2.3,2.2-2.3c0-0.7,1-1.7,2.9-2.9l4.1-2.4
		c0.4,0.2,0.5,0.3,0.4,0.3v-0.4L94,31c0.2,0,0.5-0.3,0.7-0.9C95.2,30.1,96.3,29.9,98.1,29.5z M69.3,88v-0.5h0
		C69.3,87.5,69.3,87.7,69.3,88L69.3,88z M82,75.7c0.1,0,0.2,0,0.2-0.1l0.6-0.3c0,0.3-0.2,0.4-0.5,0.4V76h0.3
		C82.2,76.1,82,76,82,75.7z M84,74.2v-0.5h-0.4v0.5H84z M84.6,93.3c0,2,1.7,3.6,5.2,4.7c1,0.3,2.1,0.4,3.1,0.4h1.5
		c1.3,0,2.8-0.9,4.4-2.7c0.6-2,0.9-3.2,0.9-3.5c0.1,0,0.1-0.4,0.1-1.2v-0.5l-0.4-0.8c0.4,0,0.6,0,0.7-0.1l-0.8-3.9l0.1-0.2
		c-0.2-0.4-0.4-0.8-0.5-1.4c-0.2-0.1-0.5-0.8-0.9-2.2c-0.2,0-0.4-0.4-0.4-1.3l0.1-0.1l-2.1-3.2v0.6c-6.2,4.9-9.7,9-10.6,12.1
		C85,90.5,84.8,91.6,84.6,93.3z M85.1,46.8V49l0.1,1l-0.1,0.3c0.7,3.2,2.6,7.2,5.5,12.2c0.6,0.8,0.8,1.2,0.8,1.2l1.8-1.7h0.1v0.3
		h-0.6c0.7-1.2,1.4-2.2,2.1-2.8c1.1-2.2,2.1-3.5,2.8-3.9h0.6c0,0.3,0,0.5,0,0.5h-0.2c0-0.4,0.1-0.6,0.4-0.6v0.3h-0.1l-0.5,0.3H97
		v-0.8c1.2-2.1,1.9-3.1,2.2-3.1c0.3-0.1,0.6-0.6,1-1.5l-0.2-0.9l0.8-0.5v-1.2l0.7-0.1v-0.9c0.6-1.7,1-2.8,1.4-3.4
		c-0.1-0.1-0.1-0.3-0.1-0.7c0.3-0.6,0.5-0.9,0.6-1c0,0.4-0.1,0.6-0.2,0.6c0.3-1.2,0.4-2.3,0.5-3.1c-0.1-0.2-0.1-0.3-0.1-0.5
		c0.2-0.8,0.3-1.3,0.3-1.5c-0.6-3-1.5-4.5-2.7-4.5c-0.1-0.3-0.7-0.5-1.8-0.6c-3.6,0-7.5,1.9-11.5,5.7C86.1,40.6,85.1,43.5,85.1,46.8
		z M93.8,63.5l0.2-0.4L93.6,63l-0.2,0.4L93.8,63.5z M99.7,54.2v-0.4H99v0.4H99.7z"/>
	<path d="M135.1,27.9l1,0.2l1.1-0.2c0.6,0.7,0.9,1.3,0.9,1.7c0,0.9-1.3,3.5-3.9,8c0.1,0.4,0.2,0.6,0.5,0.6h3.2
		c0.7-0.3,6.2-0.8,16.7-1.7l3.1-0.4l1-0.2c1.1,0.2,2.1,0.2,3,0.2c0.3-0.3,1.5-0.5,3.9-0.7c0.7,0.2,1.3,0.2,2,0.2h0.8
		c0.3,0,0.6-0.1,0.8-0.2l0.3,0.2c1.5-0.3,2.5-0.5,3-0.5c0.7,0,1.5,0.2,2.3,0.5c0.5-0.3,1-0.5,1.6-0.5h2.3c0.3,0,0.6-0.1,0.8-0.2
		c0.2,0.1,0.5,0.2,0.8,0.2h1.4c0.6,0,1.1-0.1,1.6-0.2c0.5,0.1,1,0.2,1.6,0.2c-1.8,0.2-0.8,0.3,3.2,0.3c0,0,0.1,0,0.4,0
		c0.4-0.3,0.8-0.4,1.1-0.4c1.9,0.1,3,0.2,3.3,0.2V35l1.4,0.4l6.4-0.4l1.2,0.2l2.4-0.4l0.2,0.5l2.4-0.2h2.5c0.2,0,0.3,0.1,0.3,0.2
		c-0.1,0-0.1-0.1-0.1-0.2l2.1-0.2c1.1,0.2,2,0.2,2.6,0.2v0.7l-1.3-0.7h1.2c0.5,0,1.1-0.1,1.7-0.2l0.4,0.2l3-0.5l0.9,0.5
		c0.2,0,0.4-0.1,0.7-0.2c0.3,0,0.4,0.1,0.4,0.2c1.4-0.2,2.4-0.2,3.1-0.2h3.9l1.2-0.2c0.3,0.1,0.4,0.3,0.4,0.5c0.4,0,0.9-0.1,1.7-0.4
		l1,0.4c0.3-0.2,0.5-0.1,0.8,0.2h0v0.6h0.7c0.1-0.9,0.3-1.4,0.4-1.4h4.6l0.8,1.4h1c0.2-0.6,0.2-1,0.2-1.2c0.1,0,0.1,0.1,0.1,0.3
		l-0.4-0.5c0.7,0,1.6,0.5,2.7,1.4c0.4,0,0.6-0.2,0.6-0.7h-0.6l0.5-0.5l0.6-0.1c0.1,1,0.5,1.6,1.3,1.6c0-0.9-0.6-1.3-1.9-1.1h3.2
		l-0.3,1.1h0.6c0.5,0,1-0.2,1.4-0.7c0.4,0,0.8,0.2,1.3,0.7l0.6-0.3l-0.2-0.6v-0.1c0,0.1,0,0.1,0.1,0.1c0-0.2,0.6,0.1,1.7,0.9h0.8
		c0-0.5,0.4-0.9,1.2-1.1c0.2,0.1,0.5,0.2,0.8,0.2c-0.3,0.2-0.2,0.3,0.4,0.3c0-0.2,0.2-0.1,0.7,0.2c0.1,0,0.4-0.1,0.8-0.2h0.7
		c0,0,0.1-0.1,0.2-0.4h0.9c0,0.1,0,0.3,0,0.8l0.4,0.5c-0.3,0-0.8-0.2-1.3-0.6v-0.3l0.4,0.2c-1.4,0.4-2.1,0.6-2.2,0.6h-1
		c-0.5,0-1.1-0.1-1.8-0.2l-0.8,0.4c-0.8-0.2-1.5-0.2-2.1-0.2h-0.2c-0.9,0.6-1.4,0.7-1.4,0.3c-0.4-0.2-0.8-0.3-1.2-0.3
		c-0.4,0.3-0.7,0.5-0.9,0.5l-1.1-0.3c0,0.2,0,0.3,0,0.5h-1.3v-0.4h-0.4c-0.3,0.3-1.2,0.6-2.8,0.7c0-0.2-0.3-0.2-0.9-0.2
		c0,0-0.1,0-0.3,0c-1.3,0.3-2.2,0.5-2.7,0.5l-1.4-0.2l-0.7,0.4l-1-0.2c-0.3,0-1.2,0.1-2.5,0.4c-1.8-0.3-2.8-0.6-3-0.9h-0.3
		c-0.4,0.5-0.7,0.7-0.9,0.7c-0.4-0.3-0.8-0.4-1.2-0.4h-0.2c-0.3,0-1.2,0.4-2.7,1.1l-0.3-0.2h-4.3c-0.5,0-1.1,0.1-1.7,0.2
		c-0.2-0.1-0.5-0.2-0.8-0.2c-0.7,0-1.1,0.1-1.1,0.3c-0.4-0.2-0.8-0.3-1.4-0.3h-1.2c-0.1,0-0.7,0.1-1.6,0.4h-0.8
		c-0.3,0-0.9-0.1-1.8-0.4l-2.7,0.7c-0.1,0-0.3-0.1-0.5-0.2c-4,0.3-7.4,0.4-10.2,0.4h-0.8c-0.5,0-1.1,0.1-1.8,0.2l-0.9-0.4l-5.7,0.4
		l-1-0.2c-0.5,0.2-0.7,0.3-0.7,0.4l-1.8-0.2h-2.7c-0.7,0-1.7,0.2-2.9,0.5c-0.4,0-0.7-0.1-0.9-0.2l-6.7,0.4l-1.2-0.2
		c-1,0.3-1.6,0.5-2,0.5l-2-0.2c-8.4,0.5-19.2,1.4-32.4,2.9c0.1,0-0.3,0.8-1.3,2.3c0,0.4-1,2.6-3.1,6.6c-2.5,7.3-3.7,11.1-3.7,11.5
		c0,0.2,0.1,0.4,0.2,0.7c-0.4,1.6-0.6,3.2-0.6,4.8v2.1c0.3,1.9,1.4,2.9,3.3,2.9c2.1,0,6.1-1.9,11.8-5.7c1.7-1,3.2-2.1,4.5-3.2
		c1.7-1.8,3.6-4.4,5.9-7.7l0.3,0.4c-0.3,2-0.8,3.8-1.6,5.3c-4.2,5-7.1,7.9-8.8,8.7c-0.8,0.8-2.1,1.8-3.7,2.7
		c-3.3,2.3-6.2,3.4-8.5,3.4c-2.7-0.4-4.7-1.4-5.9-2.9c0-0.6-0.3-1.3-1-2.2l0.2-0.4v-0.5c0-0.6-0.2-1.1-0.6-1.7v-0.4l0.4-0.7v-1.4
		c0-0.6,0.1-1.3,0.2-2.1c-0.1-0.3-0.2-0.5-0.2-0.6c0.4-2.3,1.2-4.9,2.3-8c0.2-1.9,0.7-3.3,1.6-4.3c0.4-2,1-3.5,1.8-4.5
		c0.9-1.8,1.4-2.9,1.4-3.4c-0.2,0-0.4-0.1-0.7-0.2l-16.8,3.2c-1.1-0.6-1.9-1.2-2.2-2l0.2-1.2l0.5-1.1c10.7-2.3,18.1-3.7,22.3-4.2
		c2-2.9,3-4.7,3-5.6c0.5-0.7,1.4-2.5,2.7-5.4L135.1,27.9z M238.6,35.1h1.1v1l-0.5,1.2c-0.6-0.3-1.1-0.5-1.5-0.5
		C237.7,35.8,238,35.2,238.6,35.1z M252,35.2h-0.9v-1h0.9V35.2z M259.1,34.6v1.7h-1.7v-1.7H259.1z M261.6,35.6h-0.9v-1h0.9V35.6z
		 M262.4,35.8c-0.6-0.1-0.9-0.4-0.9-0.9h0.9V35.8z M263.3,35.8c0.1,0,0.1,0.1,0.1,0.4l1.7-0.4h-2.3L263.3,35.8z M266.6,35.3v0.3
		c0.1,0-0.1,0.2-0.4,0.5h-0.1C265.8,35.6,265.9,35.4,266.6,35.3z M268.4,36.6h-0.9v-1h0.9V36.6z M273.8,35.4c0,0-0.3,0-1,0v-0.1h0.5
		v0.2l0.1,0.2C273.7,35.5,273.8,35.4,273.8,35.4z"/>
	<path d="M152.8,56.7l0.6-0.1c3.9-0.3,6.1,0.1,6.5,1.4c0.2-0.1,0.8,0.9,1.7,2.9c0.2,0.6,0.1,1.9-0.2,3.9l0-0.1h0
		c0.8-0.2,3.6-2.1,8.5-5.9c0.6-0.4,1.1-0.6,1.6-0.7c0.5,1.6-2.1,4.6-7.8,9.2c-1.6,1-3,1.7-4.2,2c-2.4,2.4-4.2,4.1-5.5,4.9
		c-0.4,0.1-0.8,0.3-1.3,0.5c-2.8,0.7-5.3-0.2-7.3-2.6c-0.4-0.7-0.8-1.5-1.2-2.4c-1.3-4.1-0.4-7.4,2.7-9.8c1-1.2,2.6-2.1,4.7-2.6
		C151.7,57,152.1,56.9,152.8,56.7z M147.4,67.8l0.1,0.4c0.6,2,1.3,3.1,2.1,3.3c0.6,0.2,1.3,0.1,2.2-0.1c1.8-1.1,2.8-1.8,2.9-2.2v0
		c-3.1-1.4-4.9-3.1-5.6-5.2c-0.1,0-0.2-0.1-0.3-0.5c0-0.7-0.1-1.3-0.2-1.7h0C147.2,63.9,146.8,65.9,147.4,67.8z M152.6,63.2
		c1.1,2.4,2.5,3.4,4.3,2.9l0.5-0.1c1-1.4,1.5-2.7,1.4-4c-0.9-2.2-1.9-3.2-3.1-2.9c-0.1-0.2-0.3-0.2-0.6-0.1
		C152.7,59.6,151.9,61,152.6,63.2z"/>
	<path d="M172.2,57.5c0.6,0,1.2,0.3,2,0.8c0,0.5-1.2,2.5-3.5,6.3c-0.6,1.1-0.9,2.9-1.2,5.5c0.3,0.6,0.5,0.9,0.8,1
		c1.3,0,3.9-1.6,7.8-4.9c2-2,4.4-4.6,7-7.8c0.9-0.3,1.7-0.4,2.3-0.4h0.6c0.2,0,0.5,0.3,0.8,1c0,0.3-0.8,1.3-2.3,3.1
		c-0.5,0.7-1.2,2.3-2,4.7v1.8c0,0.2,0.3,0.5,1,1c1.9,0,5.8-3,11.6-9c1-1.4,2-2.3,2.9-2.7h0.2c0.3,0,0.4,0.2,0.4,0.4
		c-1,3-3.6,6.9-7.9,11.5c-2.5,2.2-4.9,3.3-7.2,3.3h-0.2c-2.3,0-4.1-1.6-5.3-4.9c-4.1,4-6.8,6.1-8,6.1c-0.9,0.3-1.7,0.4-2.3,0.4
		c-2.1,0-3.5-1.4-4.1-4.3V70c0-3.9,1.8-7.9,5.3-12.1C171.1,57.9,171.6,57.8,172.2,57.5z"/>
	<path d="M212.8,27.9l1,0.2l1.1-0.2c0.6,0.7,0.9,1.3,0.9,1.7c0,0.9-1.3,3.5-3.9,8c0.1,0.4,0.2,0.6,0.5,0.6h3.2
		c0.7-0.3,6.2-0.8,16.7-1.7l3.1-0.4l1-0.2c1.1,0.2,2.1,0.2,3,0.2c0.3-0.3,1.5-0.5,3.9-0.7c0.7,0.2,1.3,0.2,2,0.2h0.8
		c0.3,0,0.6-0.1,0.8-0.2l0.3,0.2c1.5-0.3,2.5-0.5,3-0.5c0.7,0,1.5,0.2,2.3,0.5c0.5-0.3,1-0.5,1.6-0.5h2.3c0.3,0,0.6-0.1,0.8-0.2
		c0.2,0.1,0.5,0.2,0.8,0.2h1.4c0.6,0,1.1-0.1,1.6-0.2c0.5,0.1,1,0.2,1.6,0.2c-1.8,0.2-0.8,0.3,3.2,0.3c0,0,0.1,0,0.4,0
		c0.4-0.3,0.8-0.4,1.1-0.4c1.9,0.1,3,0.2,3.3,0.2V35l1.4,0.4l6.4-0.4l1.2,0.2l2.4-0.4l0.2,0.5l2.4-0.2h2.5c0.2,0,0.3,0.1,0.3,0.2
		c-0.1,0-0.1-0.1-0.1-0.2l2.1-0.2c1.1,0.2,2,0.2,2.6,0.2v0.7l-1.3-0.7h1.2c0.5,0,1.1-0.1,1.7-0.2l0.4,0.2l3-0.5l0.9,0.5
		c0.2,0,0.4-0.1,0.7-0.2c0.3,0,0.4,0.1,0.4,0.2c1.4-0.2,2.4-0.2,3.1-0.2h3.9l1.2-0.2c0.3,0.1,0.4,0.3,0.4,0.5c0.4,0,0.9-0.1,1.7-0.4
		l1,0.4c0.3-0.2,0.5-0.1,0.8,0.2h0v0.6h0.7c0.1-0.9,0.3-1.4,0.4-1.4h4.6l0.8,1.4h1c0.2-0.6,0.2-1,0.2-1.2c0.1,0,0.1,0.1,0.1,0.3
		l-0.4-0.5c0.7,0,1.6,0.5,2.7,1.4c0.4,0,0.6-0.2,0.6-0.7h-0.6l0.5-0.5l0.6-0.1c0.1,1,0.5,1.6,1.3,1.6c0-0.9-0.6-1.3-1.9-1.1h3.2
		l-0.3,1.1h0.6c0.5,0,1-0.2,1.4-0.7c0.4,0,0.8,0.2,1.3,0.7l0.6-0.3l-0.2-0.6v-0.1c0,0.1,0,0.1,0.1,0.1c0-0.2,0.6,0.1,1.7,0.9h0.8
		c0-0.5,0.4-0.9,1.2-1.1c0.2,0.1,0.5,0.2,0.8,0.2c-0.3,0.2-0.2,0.3,0.4,0.3c0-0.2,0.2-0.1,0.7,0.2c0.1,0,0.4-0.1,0.8-0.2h0.7
		c0,0,0.1-0.1,0.2-0.4h0.9c0,0.1,0,0.3,0,0.8l0.4,0.5c-0.3,0-0.8-0.2-1.3-0.6v-0.3l0.4,0.2c-1.4,0.4-2.1,0.6-2.2,0.6h-1
		c-0.5,0-1.1-0.1-1.8-0.2l-0.8,0.4c-0.8-0.2-1.5-0.2-2.1-0.2h-0.2c-0.9,0.6-1.4,0.7-1.4,0.3c-0.4-0.2-0.8-0.3-1.2-0.3
		c-0.4,0.3-0.7,0.5-0.9,0.5l-1.1-0.3c0,0.2,0,0.3,0,0.5H322v-0.4h-0.4c-0.3,0.3-1.2,0.6-2.8,0.7c0-0.2-0.3-0.2-0.9-0.2
		c0,0-0.1,0-0.3,0c-1.3,0.3-2.2,0.5-2.7,0.5l-1.4-0.2l-0.7,0.4l-1-0.2c-0.3,0-1.2,0.1-2.5,0.4c-1.8-0.3-2.8-0.6-3-0.9h-0.3
		c-0.4,0.5-0.7,0.7-0.9,0.7c-0.4-0.3-0.8-0.4-1.2-0.4h-0.2c-0.3,0-1.2,0.4-2.7,1.1l-0.3-0.2h-4.3c-0.5,0-1.1,0.1-1.7,0.2
		c-0.2-0.1-0.5-0.2-0.8-0.2c-0.7,0-1.1,0.1-1.1,0.3c-0.4-0.2-0.8-0.3-1.4-0.3h-1.2c-0.1,0-0.7,0.1-1.6,0.4h-0.8
		c-0.3,0-0.9-0.1-1.8-0.4l-2.7,0.7c-0.1,0-0.3-0.1-0.5-0.2c-4,0.3-7.4,0.4-10.2,0.4h-0.8c-0.5,0-1.1,0.1-1.8,0.2l-0.9-0.4l-5.7,0.4
		l-1-0.2c-0.5,0.2-0.7,0.3-0.7,0.4l-1.8-0.2h-2.7c-0.7,0-1.7,0.2-2.9,0.5c-0.4,0-0.7-0.1-0.9-0.2l-6.7,0.4l-1.2-0.2
		c-1,0.3-1.6,0.5-2,0.5l-2-0.2c-8.4,0.5-19.2,1.4-32.4,2.9c0.1,0-0.3,0.8-1.3,2.3c0,0.4-1,2.6-3.1,6.6c-2.5,7.3-3.7,11.1-3.7,11.5
		c0,0.2,0.1,0.4,0.2,0.7c-0.4,1.6-0.6,3.2-0.6,4.8v2.1c0.3,1.9,1.4,2.9,3.3,2.9c2.1,0,6.1-1.9,11.8-5.7c1.7-1,3.2-2.1,4.5-3.2
		c1.7-1.8,3.6-4.4,5.9-7.7l0.3,0.4c-0.3,2-0.8,3.8-1.6,5.3c-4.2,5-7.1,7.9-8.8,8.7c-0.8,0.8-2.1,1.8-3.7,2.7
		c-3.3,2.3-6.2,3.4-8.5,3.4c-2.7-0.4-4.7-1.4-5.9-2.9c0-0.6-0.3-1.3-1-2.2l0.2-0.4v-0.5c0-0.6-0.2-1.1-0.6-1.7v-0.4l0.4-0.7v-1.4
		c0-0.6,0.1-1.3,0.2-2.1c-0.1-0.3-0.2-0.5-0.2-0.6c0.4-2.3,1.2-4.9,2.3-8c0.2-1.9,0.7-3.3,1.6-4.3c0.4-2,1-3.5,1.8-4.5
		c0.9-1.8,1.4-2.9,1.4-3.4c-0.2,0-0.4-0.1-0.7-0.2l-16.8,3.2c-1.1-0.6-1.9-1.2-2.2-2l0.2-1.2l0.5-1.1c10.7-2.3,18.1-3.7,22.3-4.2
		c2-2.9,3-4.7,3-5.6c0.5-0.7,1.4-2.5,2.7-5.4L212.8,27.9z M316.4,35.1h1.1v1l-0.5,1.2c-0.6-0.3-1.1-0.5-1.5-0.5
		C315.4,35.8,315.7,35.2,316.4,35.1z M329.8,35.2h-0.9v-1h0.9V35.2z M336.8,34.6v1.7h-1.7v-1.7H336.8z M339.3,35.6h-0.9v-1h0.9V35.6
		z M340.1,35.8c-0.6-0.1-0.9-0.4-0.9-0.9h0.9V35.8z M341.1,35.8c0.1,0,0.1,0.1,0.1,0.4l1.7-0.4h-2.3L341.1,35.8z M344.3,35.3v0.3
		c0.1,0-0.1,0.2-0.4,0.5h-0.1C343.5,35.6,343.7,35.4,344.3,35.3z M346.2,36.6h-0.9v-1h0.9V36.6z M351.6,35.4c0,0-0.3,0-1,0v-0.1h0.5
		v0.2l0.1,0.2C351.4,35.5,351.6,35.4,351.6,35.4z"/>
	<path d="M233.4,54.3c0.8,0,1.7,0.6,2.7,1.7c0,1.8-0.4,3.3-1.3,4.5c-3.2,3.7-5.8,5.7-7.9,6.1l-2.2,1v0.7c0,1.5,1.3,2.2,4,2.2
		c1.8-0.2,3.6-0.6,5.3-1.2c1.8-0.6,4.3-2.8,7.4-6.6c0.6-1.4,1.7-2.7,3.1-4h0.7c0,0.5,0.1,0.8,0.3,1.1v0.4c-3.4,7.6-8.3,12.1-15,13.4
		c-0.7,0-1.4,0.1-2.1,0.3c-4,0-6.7-2-8.1-6.1l-0.2-2.9h0.8c0.4-2.4,2.5-5.2,6.3-8.3C229.9,55.2,231.9,54.3,233.4,54.3z M225.3,63.8
		c3.8-1.3,6.3-3.4,7.7-6.2v-0.2c0-0.1,0-0.2,0.1-0.2c-2.4,0.5-4.9,2.7-7.5,6.5H225.3z M246.4,58l0.5,1l-0.8,0.4h-1.2v-1.1L246.4,58z
		"/>
	<path d="M322.5,29.8c0.6,0.5,1.7,0.8,3.2,0.9c1,0.5,1.9,1.9,2.7,4.1h0.2c0.4,2.7-0.4,7.4-2.4,14.1c-0.6,2.4-2.1,7.8-4.6,16.2
		c-2,8.1-2.9,13.3-2.6,15.5l0.1,0.9c0.8,3.3,2.1,5,3.7,5h1.8c2.1-0.4,4.8-1.6,8-3.4c0.5-0.7,2.2-2.1,5.1-4.4c1.4-1.2,2.4-2.3,3-3.2
		c0.9-0.2,2.8-2,5.7-5.2l0.3-0.1c0.1,0.2,0.2,0.3,0.4,0.3h0.4c-0.1-0.3,0.3-0.7,1.1-1.1c0.1-0.4,0.2-0.5,0.3-0.5
		c-0.2-0.2-0.2-0.4-0.2-0.5h-0.5l-0.1,0.7h-0.5c0.7-1.5,1.8-2.9,3.6-4.3c0.2-0.9,0.7-1.4,1.6-1.4c0.8-1.6,1.8-2.3,2.9-2.3
		c0-1.1,0.2-1.6,0.5-1.6c0.2,0.1,0.4,0.2,0.4,0.4c-0.2,0.7-0.6,1.4-1.2,2l0.1,0.5c0,0.1,0.1,0.2,0.2,0.2c-0.8,2.2-2.3,4.7-4.3,7.7
		c0,0.2-1.2,1.9-3.8,5.2c0,0.2-1.8,1.9-5.4,5c-2.2,2.9-6,5.8-11.3,8.7c-2.2,1.1-4.3,1.6-6.4,1.6c-4.1,0-7.1-2.9-9-8.6l0.1-0.3
		L315,80c-0.3-2,0.1-3,1.2-3l-0.8-0.7l0-0.2l0.3-0.5v-0.1c0-0.1-0.1-0.2-0.2-0.2c0-0.5,0.2-0.7,0.6-0.7l-0.4-1.8
		c-0.1-0.6,0.4-1.7,1.5-3.2c-0.2-0.4-0.3-0.7-0.3-0.7c0.6-1,0.9-1.7,0.8-2.1l-0.2-0.4c0.1-0.6,0.4-1.1,0.9-1.4
		c-0.2-0.4-0.3-0.5-0.4-0.5c0-0.3,0.4-1.3,1.2-2.8c0.2-2.9,0.7-4.3,1.4-4.3l0-0.2l-0.4-0.7c0.4-0.7,0.6-1.1,0.7-1.1
		c0.2,0,0.5-0.9,0.9-2.7l0-0.3c0-0.1-0.1-0.2-0.2-0.2c0.4-1.2,0.9-2.4,1.5-3.6c-0.1-0.3,0.4-1.9,1.5-4.8c-0.1-0.2-0.2-0.4-0.2-0.5
		c0.4-1,0.6-2.4,0.5-4.2c0.3-0.7,0.4-1.4,0.3-2l-0.4-3c-0.2-0.5-0.7-0.7-1.7-0.7c-3.7,0-9.9,3.9-18.6,11.6c-2.2,2.6-4.4,4.8-6.6,6.6
		c-0.7,1.2-3.5,5.2-8.5,12l-4.4,8.2l-4.8,7.9c0.1,0.4-0.7,2.3-2.4,5.7c-2.4,7.1-4.1,11.4-5,12.8c-0.3,0-0.6,0.2-1,0.5
		c-0.9,0-1.7-0.7-2.4-2.1c-0.2,0-0.4-0.1-0.4-0.3v-0.2c1.9-6.3,3.1-9.4,3.5-9.4c1-4.5,1.9-6.8,2.7-6.8c-0.2-1.1,0-1.9,0.6-2.1
		c-0.1-0.7,0-1.1,0.2-1.1l0,0.2c0.2-0.1,0.4-0.2,0.5-0.2V76l-0.3-0.9c0.2,0,0.3-0.2,0.3-0.5c-0.2-0.2-0.2-0.4-0.2-0.5
		c0.9-2.1,1.5-3.2,1.7-3.2l-0.3-0.9c0.6-0.1,0.9-0.3,0.8-0.5l-0.3-1.1l0-0.2c0.1,0,0.3,0,0.7-0.1l-0.2-0.3l0-0.4
		c-0.1-0.6,0.3-0.8,1.3-0.9v-0.2c0-0.3-0.2-0.7-0.5-1.1c0-0.2,0.4-1.2,1.4-2.8c-0.1-0.7,0.2-1.5,0.7-2.5c-0.1-1,0.3-1.6,1.2-2l0-0.4
		l-0.3-1.2c0.8,0,1.2-0.8,1.3-2.5c0.3,0,0.7-1,1.1-2.9l0-0.2c0-0.1-0.1-0.1-0.2-0.1c0.6-0.4,0.9-2,1-4.6c-0.1-4.3-0.1-6.6,0.1-6.8
		c0.2,0,0.5-0.2,0.8-0.5h0.2c0.8,0,1.7,0.8,2.6,2.5c-0.2,4.8-0.6,8-1.2,9.6c-0.3,0.4-0.6,1.7-0.9,3.8c-0.9,2.3-2.1,6.3-3.8,12v0.2
		c0.1,0.2,0.2,0.3,0.4,0.3h0.1l1.1-1.3c0-0.3-0.2-0.7-0.5-1.1c0.3,0,0.4-0.2,0.3-0.5h0.3l0.1,0.5h0.3c0.5-1.4,0.8-2.1,1-2.1
		c0.7,0,1.2-0.9,1.6-2.7c0.2,0,0.5-0.4,0.9-1.3c1.3-0.1,1.9-0.3,1.9-0.5l-1-0.9l0-0.3c0.9,0,1.7-0.7,2.2-2c0.5,0,0.9-0.5,1-1.6
		c0.1,0,0.5-0.4,1.1-1.1h0.1l0.6,0.3h0.2l-0.1-0.9l-0.2-0.4c1-0.6,1.4-1,1.4-1.4l-0.3-0.9l0.3-0.2c0.1,0.3,0.2,0.4,0.4,0.4
		c0.2,0,0.3-0.1,0.3-0.4l-0.4-0.5c0.5-0.5,0.9-0.8,1.5-1.1c0-0.5,0.1-0.7,0.4-0.7c0.2,0.1,0.5,0.1,0.7,0.1c0-1.1,0.4-1.6,1.4-1.6
		l0-0.3c-0.2-0.2-0.2-0.4-0.2-0.5l0.5-0.3c0,0.1,0.1,0.2,0.2,0.2l-0.1,0.3l0,0.2h0.9c0.3,0,0.4-0.7,0.4-2l0.4,0.2h0.7
		c0.1,0,0.6-0.1,1.4-0.3l-0.1-0.5c-0.4,0-0.6-0.1-0.6-0.4v-0.1c0.8,0,1.3-0.5,1.6-1.4c0.7-0.2,1-0.4,1-0.5l0.4,0.1h0.3l0-0.3
		l-0.3-0.9c0.2-0.1,0.4-0.2,0.5-0.2l0.3,0.2c0.6-0.2,1.6-1.1,3-2.7c1.6-0.3,2.4-0.9,2.3-1.6c0.9-0.3,2.1-1,3.3-2
		c0.3,0,1.4-0.5,3.5-1.6C321,30,322,29.8,322.5,29.8z M281.5,69.8l-0.1,0.4l0.3,0.1l0.1-0.3L281.5,69.8z M316.5,73.5
		c0,0.2,0,0.5-0.2,0.9h0.5c0.2,0,0.3-0.1,0.3-0.3l0-0.5H316.5z M346.2,71.4v0.2h0.5l0-0.5h-0.2C346.2,71.1,346.1,71.2,346.2,71.4z
		 M350.1,66.1l0,0.1h0.3l0-0.1H350.1z M352.6,63.7c0.1,0.2,0.2,0.3,0.4,0.3h0.2l0-0.3H352.6z"/>
	<path d="M362.3,56.7l0.6-0.1c3.9-0.3,6.1,0.1,6.5,1.4c0.2-0.1,0.8,0.9,1.7,2.9c0.2,0.6,0.1,1.9-0.2,3.9l0-0.1h0
		c0.8-0.2,3.6-2.1,8.5-5.9c0.6-0.4,1.1-0.6,1.6-0.7c0.5,1.6-2.1,4.6-7.8,9.2c-1.6,1-3,1.7-4.2,2c-2.4,2.4-4.2,4.1-5.5,4.9
		c-0.4,0.1-0.8,0.3-1.3,0.5c-2.8,0.7-5.3-0.2-7.3-2.6c-0.4-0.7-0.8-1.5-1.2-2.4c-1.3-4.1-0.4-7.4,2.7-9.8c1-1.2,2.6-2.1,4.7-2.6
		C361.2,57,361.5,56.9,362.3,56.7z M356.9,67.8l0.1,0.4c0.6,2,1.3,3.1,2.1,3.3c0.6,0.2,1.3,0.1,2.2-0.1c1.8-1.1,2.8-1.8,2.9-2.2v0
		c-3.1-1.4-4.9-3.1-5.6-5.2c-0.1,0-0.2-0.1-0.3-0.5c0-0.7-0.1-1.3-0.2-1.7h0C356.6,63.9,356.2,65.9,356.9,67.8z M362.1,63.2
		c1.1,2.4,2.5,3.4,4.3,2.9l0.5-0.1c1-1.4,1.5-2.7,1.4-4c-0.9-2.2-1.9-3.2-3.1-2.9c-0.1-0.2-0.3-0.2-0.6-0.1
		C362.2,59.6,361.4,61,362.1,63.2z"/>
	<path d="M381.7,57.5c0.6,0,1.2,0.3,2,0.8c0,0.5-1.2,2.5-3.5,6.3c-0.6,1.1-0.9,2.9-1.2,5.5c0.3,0.6,0.5,0.9,0.8,1
		c1.3,0,3.9-1.6,7.8-4.9c2-2,4.4-4.6,7-7.8c0.9-0.3,1.7-0.4,2.3-0.4h0.6c0.2,0,0.5,0.3,0.8,1c0,0.3-0.8,1.3-2.3,3.1
		c-0.5,0.7-1.2,2.3-2,4.7v1.8c0,0.2,0.3,0.5,1,1c1.9,0,5.8-3,11.6-9c1-1.4,2-2.3,2.9-2.7h0.2c0.3,0,0.4,0.2,0.4,0.4
		c-1,3-3.6,6.9-7.9,11.5c-2.5,2.2-4.9,3.3-7.2,3.3h-0.2c-2.3,0-4.1-1.6-5.3-4.9c-4.1,4-6.8,6.1-8,6.1c-0.9,0.3-1.7,0.4-2.3,0.4
		c-2.1,0-3.5-1.4-4.1-4.3V70c0-3.9,1.8-7.9,5.3-12.1C380.6,57.9,381.1,57.8,381.7,57.5z"/>
	<path d="M422.3,27.9l1,0.2l1.1-0.2c0.6,0.7,0.9,1.3,0.9,1.7c0,0.9-1.3,3.5-3.9,8c0.1,0.4,0.2,0.6,0.5,0.6h3.2
		c0.7-0.3,6.2-0.8,16.7-1.7l3.1-0.4l1-0.2c1.1,0.2,2.1,0.2,3,0.2c0.3-0.3,1.5-0.5,3.9-0.7c0.7,0.2,1.3,0.2,2,0.2h0.8
		c0.3,0,0.6-0.1,0.8-0.2l0.3,0.2c1.5-0.3,2.5-0.5,3-0.5c0.7,0,1.5,0.2,2.3,0.5c0.5-0.3,1-0.5,1.6-0.5h2.3c0.3,0,0.6-0.1,0.8-0.2
		c0.2,0.1,0.5,0.2,0.8,0.2h1.4c0.6,0,1.1-0.1,1.6-0.2c0.5,0.1,1,0.2,1.6,0.2c-1.8,0.2-0.8,0.3,3.2,0.3c0,0,0.1,0,0.4,0
		c0.4-0.3,0.8-0.4,1.1-0.4c1.9,0.1,3,0.2,3.3,0.2V35l1.4,0.4l6.4-0.4l1.2,0.2l2.4-0.4l0.2,0.5l2.4-0.2h2.5c0.2,0,0.3,0.1,0.3,0.2
		c-0.1,0-0.1-0.1-0.1-0.2l2.1-0.2c1.1,0.2,2,0.2,2.6,0.2v0.7l-1.3-0.7h1.2c0.5,0,1.1-0.1,1.7-0.2l0.4,0.2l3-0.5l0.9,0.5
		c0.2,0,0.4-0.1,0.7-0.2c0.3,0,0.4,0.1,0.4,0.2c1.4-0.2,2.4-0.2,3.1-0.2h3.9l1.2-0.2c0.3,0.1,0.4,0.3,0.4,0.5c0.4,0,0.9-0.1,1.7-0.4
		l1,0.4c0.3-0.2,0.5-0.1,0.8,0.2h0v0.6h0.7c0.1-0.9,0.3-1.4,0.4-1.4h4.6l0.8,1.4h1c0.2-0.6,0.2-1,0.2-1.2c0.1,0,0.1,0.1,0.1,0.3
		l-0.4-0.5c0.7,0,1.6,0.5,2.7,1.4c0.4,0,0.6-0.2,0.6-0.7h-0.6l0.5-0.5l0.6-0.1c0.1,1,0.5,1.6,1.3,1.6c0-0.9-0.6-1.3-1.9-1.1h3.2
		l-0.3,1.1h0.6c0.5,0,1-0.2,1.4-0.7c0.4,0,0.8,0.2,1.3,0.7l0.6-0.3l-0.2-0.6v-0.1c0,0.1,0,0.1,0.1,0.1c0-0.2,0.6,0.1,1.7,0.9h0.8
		c0-0.5,0.4-0.9,1.2-1.1c0.2,0.1,0.5,0.2,0.8,0.2c-0.3,0.2-0.2,0.3,0.4,0.3c0-0.2,0.2-0.1,0.7,0.2c0.1,0,0.4-0.1,0.8-0.2h0.7
		c0,0,0.1-0.1,0.2-0.4h0.9c0,0.1,0,0.3,0,0.8l0.4,0.5c-0.3,0-0.8-0.2-1.3-0.6v-0.3l0.4,0.2c-1.4,0.4-2.1,0.6-2.2,0.6h-1
		c-0.5,0-1.1-0.1-1.8-0.2l-0.8,0.4c-0.8-0.2-1.5-0.2-2.1-0.2h-0.2c-0.9,0.6-1.4,0.7-1.4,0.3c-0.4-0.2-0.8-0.3-1.2-0.3
		c-0.4,0.3-0.7,0.5-0.9,0.5l-1.1-0.3c0,0.2,0,0.3,0,0.5h-1.3v-0.4h-0.4c-0.3,0.3-1.2,0.6-2.8,0.7c0-0.2-0.3-0.2-0.9-0.2
		c0,0-0.1,0-0.3,0c-1.3,0.3-2.2,0.5-2.7,0.5l-1.4-0.2l-0.7,0.4l-1-0.2c-0.3,0-1.2,0.1-2.5,0.4c-1.8-0.3-2.8-0.6-3-0.9h-0.3
		c-0.4,0.5-0.7,0.7-0.9,0.7c-0.4-0.3-0.8-0.4-1.2-0.4H513c-0.3,0-1.2,0.4-2.7,1.1l-0.3-0.2h-4.3c-0.5,0-1.1,0.1-1.7,0.2
		c-0.2-0.1-0.5-0.2-0.8-0.2c-0.7,0-1.1,0.1-1.1,0.3c-0.4-0.2-0.8-0.3-1.4-0.3h-1.2c-0.1,0-0.7,0.1-1.6,0.4H497
		c-0.3,0-0.9-0.1-1.8-0.4l-2.7,0.7c-0.1,0-0.3-0.1-0.5-0.2c-4,0.3-7.4,0.4-10.2,0.4H481c-0.5,0-1.1,0.1-1.8,0.2l-0.9-0.4l-5.7,0.4
		l-1-0.2c-0.5,0.2-0.7,0.3-0.7,0.4l-1.8-0.2h-2.7c-0.7,0-1.7,0.2-2.9,0.5c-0.4,0-0.7-0.1-0.9-0.2l-6.7,0.4l-1.2-0.2
		c-1,0.3-1.6,0.5-2,0.5l-2-0.2c-8.4,0.5-19.2,1.4-32.4,2.9c0.1,0-0.3,0.8-1.3,2.3c0,0.4-1,2.6-3.1,6.6c-2.5,7.3-3.7,11.1-3.7,11.5
		c0,0.2,0.1,0.4,0.2,0.7c-0.4,1.6-0.6,3.2-0.6,4.8v2.1c0.3,1.9,1.4,2.9,3.3,2.9c2.1,0,6.1-1.9,11.8-5.7c1.7-1,3.2-2.1,4.5-3.2
		c1.7-1.8,3.6-4.4,5.9-7.7l0.3,0.4c-0.3,2-0.8,3.8-1.6,5.3c-4.2,5-7.1,7.9-8.8,8.7c-0.8,0.8-2.1,1.8-3.7,2.7
		c-3.3,2.3-6.2,3.4-8.5,3.4c-2.7-0.4-4.7-1.4-5.9-2.9c0-0.6-0.3-1.3-1-2.2l0.2-0.4v-0.5c0-0.6-0.2-1.1-0.6-1.7v-0.4l0.4-0.7v-1.4
		c0-0.6,0.1-1.3,0.2-2.1c-0.1-0.3-0.2-0.5-0.2-0.6c0.4-2.3,1.2-4.9,2.3-8c0.2-1.9,0.7-3.3,1.6-4.3c0.4-2,1-3.5,1.8-4.5
		c0.9-1.8,1.4-2.9,1.4-3.4c-0.2,0-0.4-0.1-0.7-0.2l-16.8,3.2c-1.1-0.6-1.9-1.2-2.2-2l0.2-1.2l0.5-1.1c10.7-2.3,18.1-3.7,22.3-4.2
		c2-2.9,3-4.7,3-5.6c0.5-0.7,1.4-2.5,2.7-5.4L422.3,27.9z M525.8,35.1h1.1v1l-0.5,1.2c-0.6-0.3-1.1-0.5-1.5-0.5
		C524.9,35.8,525.2,35.2,525.8,35.1z M539.2,35.2h-0.9v-1h0.9V35.2z M546.3,34.6v1.7h-1.7v-1.7H546.3z M548.8,35.6h-0.9v-1h0.9V35.6
		z M549.6,35.8c-0.6-0.1-0.9-0.4-0.9-0.9h0.9V35.8z M550.6,35.8c0.1,0,0.1,0.1,0.1,0.4l1.7-0.4h-2.3L550.6,35.8z M553.8,35.3v0.3
		c0.1,0-0.1,0.2-0.4,0.5h-0.1C553,35.6,553.1,35.4,553.8,35.3z M555.6,36.6h-0.9v-1h0.9V36.6z M561.1,35.4c0,0-0.3,0-1,0v-0.1h0.5
		v0.2l0.1,0.2C560.9,35.5,561.1,35.4,561.1,35.4z"/>
	<path d="M442.9,54.3c0.8,0,1.7,0.6,2.7,1.7c0,1.8-0.4,3.3-1.3,4.5c-3.2,3.7-5.8,5.7-7.9,6.1l-2.2,1v0.7c0,1.5,1.3,2.2,4,2.2
		c1.8-0.2,3.6-0.6,5.3-1.2s4.3-2.8,7.4-6.6c0.6-1.4,1.7-2.7,3.1-4h0.7c0,0.5,0.1,0.8,0.3,1.1v0.4c-3.4,7.6-8.3,12.1-15,13.4
		c-0.7,0-1.4,0.1-2.1,0.3c-4,0-6.7-2-8.1-6.1l-0.2-2.9h0.8c0.4-2.4,2.5-5.2,6.3-8.3C439.4,55.2,441.4,54.3,442.9,54.3z M434.8,63.8
		c3.8-1.3,6.3-3.4,7.7-6.2v-0.2c0-0.1,0-0.2,0.1-0.2c-2.4,0.5-4.9,2.7-7.5,6.5H434.8z M455.8,58l0.5,1l-0.8,0.4h-1.2v-1.1L455.8,58z
		"/>
</g>
</svg>
